<svg xmlns="http://www.w3.org/2000/svg" width="1920" height="1079" viewBox="0 0 1920 1079"><defs><style>.a{fill:#222;stroke:#707070;}.b{fill:#fff;opacity:0.09;}.c{fill:#e6e6e6;}.d{opacity:0.1;}.e{fill:#3f3d56;}.f{fill:#f2f2f2;}.g{fill:#2f2e41;}.h{fill:#ffb8b8;}.i{fill:#ad3438;}.j{stroke:none;}.k{fill:none;}</style></defs><g class="a"><rect class="j" width="1920" height="1079"/><rect class="k" x="0.5" y="0.5" width="1919" height="1078"/></g><path class="b" d="M176.525,63.536q-3.419-1.14-6.838-2.153c.38-1.562.718-3.124,1.055-4.685,5.192-25.158,1.773-45.377-9.751-52.046-11.1-6.374-29.21.253-47.529,16.209-1.815,1.562-3.588,3.208-5.276,4.854-1.14-1.1-2.322-2.195-3.5-3.25C85.477,5.411,66.229-1.764,54.705,4.947,43.646,11.363,40.353,30.4,45,54.207c.464,2.364.971,4.685,1.562,7.049-2.7.76-5.361,1.6-7.851,2.49C16.167,71.556,0,83.881,0,96.629c0,13.17,17.222,26.382,40.649,34.4,1.9.633,3.8,1.266,5.741,1.815-.633,2.533-1.182,5.023-1.688,7.6-4.432,23.427-.971,42,10.088,48.374,11.4,6.585,30.561-.169,49.218-16.5,1.477-1.309,2.955-2.659,4.432-4.094,1.857,1.815,3.8,3.546,5.741,5.234,18.066,15.534,35.921,21.823,46.938,15.449,11.4-6.585,15.111-26.551,10.3-50.864q-.57-2.786-1.266-5.7c1.351-.38,2.659-.8,3.968-1.224,24.356-8.062,42-21.105,42-34.486,0-12.79-16.631-25.2-39.594-33.093ZM119.414,27.7c15.7-13.676,30.35-19.037,37.019-15.2,7.134,4.094,9.877,20.641,5.4,42.38-.3,1.435-.591,2.828-.971,4.221a216.088,216.088,0,0,0-28.408-4.474,213.269,213.269,0,0,0-17.982-22.414c1.646-1.562,3.25-3.039,4.939-4.517ZM70.576,118.536c2.153,3.672,4.348,7.345,6.669,10.933A191.142,191.142,0,0,1,57.66,126.3a197.182,197.182,0,0,1,6.88-18.784c1.942,3.715,3.926,7.387,6.036,11.017Zm-12.79-50.78c6.078-1.351,12.537-2.448,19.248-3.292-2.237,3.5-4.432,7.091-6.5,10.722-2.068,3.588-4.094,7.26-5.994,10.975C61.881,79.871,59.644,73.708,57.787,67.757ZM69.352,96.84c2.786-5.825,5.825-11.524,9.033-17.138s6.669-11.059,10.3-16.42c6.332-.464,12.79-.718,19.375-.718s13.085.253,19.375.718q5.382,7.978,10.257,16.336t9.16,17.053q-4.242,8.738-9.118,17.222c-3.208,5.614-6.627,11.059-10.215,16.462-6.289.464-12.832.675-19.459.675s-13.043-.211-19.248-.591Q83.3,122.4,78.428,113.977c-3.25-5.614-6.247-11.312-9.075-17.138Zm76.233,21.612c2.153-3.715,4.179-7.471,6.163-11.27a195.945,195.945,0,0,1,7.134,18.7,185.407,185.407,0,0,1-19.839,3.377C141.322,125.712,143.474,122.082,145.585,118.452Zm6.078-32.291c-1.984-3.715-4.01-7.429-6.121-11.059q-3.1-5.382-6.458-10.637a194.244,194.244,0,0,1,19.375,3.377,186.811,186.811,0,0,1-6.8,18.319ZM108.144,38.673a185.357,185.357,0,0,1,12.494,15.111c-8.358-.38-16.758-.38-25.115,0C99.66,48.34,103.923,43.274,108.144,38.673ZM59.179,12.8C66.271,8.662,82.015,14.571,98.6,29.26c1.055.929,2.111,1.942,3.208,2.955A214.453,214.453,0,0,0,83.7,54.629a222.506,222.506,0,0,0-28.366,4.39c-.549-2.153-1.013-4.348-1.477-6.543C49.893,32.046,52.51,16.639,59.179,12.8ZM48.838,124.066c-1.773-.507-3.5-1.055-5.234-1.646-8.991-2.828-19.206-7.3-26.593-13.17A18.941,18.941,0,0,1,9.075,96.629c0-7.725,13.339-17.6,32.587-24.313,2.406-.844,4.854-1.6,7.3-2.322A224.452,224.452,0,0,0,59.306,96.84a230.734,230.734,0,0,0-10.468,27.226Zm49.218,41.367a77.259,77.259,0,0,1-23.807,14.9,18.683,18.683,0,0,1-14.9.549c-6.712-3.883-9.5-18.784-5.7-38.834.464-2.364.971-4.728,1.562-7.049a211.168,211.168,0,0,0,28.661,4.137,222.757,222.757,0,0,0,18.235,22.541C100.757,162.984,99.406,164.25,98.056,165.432ZM108.4,155.175c-4.305-4.643-8.611-9.793-12.79-15.323,4.052.169,8.231.253,12.452.253,4.348,0,8.611-.084,12.832-.3A182.037,182.037,0,0,1,108.4,155.175Zm55.169,12.663A18.76,18.76,0,0,1,156.6,181.05c-6.712,3.883-21.021-1.182-36.47-14.436-1.773-1.52-3.546-3.166-5.361-4.854a208.812,208.812,0,0,0,17.813-22.625,208.083,208.083,0,0,0,28.788-4.432c.422,1.731.8,3.461,1.14,5.15a76.947,76.947,0,0,1,1.055,27.986Zm7.682-45.377c-1.182.38-2.364.76-3.588,1.1A214.425,214.425,0,0,0,156.9,96.629a213.359,213.359,0,0,0,10.342-26.551c2.195.633,4.306,1.309,6.332,1.984,19.67,6.754,33.473,16.8,33.473,24.482,0,8.273-14.732,18.953-35.795,25.917ZM108.06,116.13A19.333,19.333,0,1,0,88.727,96.8,19.33,19.33,0,0,0,108.06,116.13Z" transform="translate(1444 516.749)"/><path class="b" d="M108.714,39.993q-2.106-.7-4.211-1.326c.234-.962.442-1.924.65-2.886,3.2-15.493,1.092-27.945-6.005-32.053C92.311-.2,81.159,3.885,69.877,13.712c-1.118.962-2.21,1.976-3.249,2.99-.7-.676-1.43-1.352-2.158-2C52.641,4.2,40.787-.222,33.691,3.911c-6.811,3.951-8.839,15.675-5.979,30.337.286,1.456.6,2.886.962,4.341-1.664.468-3.3.988-4.835,1.534C9.956,44.933,0,52.523,0,60.374c0,8.111,10.606,16.247,25.034,21.187,1.17.39,2.34.78,3.535,1.118-.39,1.56-.728,3.093-1.04,4.679-2.73,14.428-.6,25.866,6.213,29.791,7.019,4.055,18.821-.1,30.311-10.164.91-.806,1.82-1.638,2.73-2.522,1.144,1.118,2.34,2.184,3.535,3.223,11.126,9.566,22.122,13.44,28.907,9.514,7.019-4.055,9.306-16.351,6.343-31.325q-.351-1.716-.78-3.509c.832-.234,1.638-.494,2.444-.754,15-4.965,25.866-13,25.866-21.239,0-7.877-10.242-15.519-24.384-20.381ZM73.542,17.923C83.212,9.5,92.233,6.2,96.34,8.565c4.393,2.522,6.083,12.712,3.327,26.1-.182.884-.364,1.742-.6,2.6a133.08,133.08,0,0,0-17.5-2.756A131.343,131.343,0,0,0,70.5,20.7c1.014-.962,2-1.872,3.042-2.782ZM43.465,73.866c1.326,2.262,2.678,4.523,4.107,6.733a117.715,117.715,0,0,1-12.062-1.95,121.437,121.437,0,0,1,4.237-11.568c1.2,2.288,2.418,4.549,3.717,6.785ZM35.588,42.593c3.743-.832,7.721-1.508,11.854-2.028-1.378,2.158-2.73,4.367-4,6.6-1.274,2.21-2.522,4.471-3.691,6.759C38.11,50.054,36.732,46.258,35.588,42.593ZM42.711,60.5c1.716-3.587,3.587-7.1,5.563-10.554s4.107-6.811,6.343-10.112c3.9-.286,7.877-.442,11.932-.442s8.059.156,11.932.442Q81.8,44.751,84.8,49.9t5.641,10.5q-2.613,5.381-5.615,10.606c-1.976,3.457-4.081,6.811-6.291,10.138-3.873.286-7.9.416-11.984.416s-8.033-.13-11.854-.364Q51.3,76.245,48.3,71.058c-2-3.457-3.847-6.967-5.589-10.554Zm46.948,13.31c1.326-2.288,2.574-4.6,3.8-6.941a120.673,120.673,0,0,1,4.393,11.516,114.184,114.184,0,0,1-12.218,2.08C87.034,78.285,88.36,76.05,89.659,73.814ZM93.4,53.927c-1.222-2.288-2.47-4.575-3.769-6.811q-1.911-3.314-3.977-6.551a119.628,119.628,0,0,1,11.932,2.08A115.048,115.048,0,0,1,93.4,53.927ZM66.6,24.682A114.154,114.154,0,0,1,74.3,33.988c-5.147-.234-10.32-.234-15.467,0C61.376,30.635,64,27.516,66.6,24.682ZM36.446,8.747C40.813,6.2,50.51,9.838,60.726,18.885c.65.572,1.3,1.2,1.976,1.82a132.073,132.073,0,0,0-11.152,13.8,137.032,137.032,0,0,0-17.469,2.7c-.338-1.326-.624-2.678-.91-4.029C30.727,20.6,32.339,11.112,36.446,8.747ZM30.077,77.271c-1.092-.312-2.158-.65-3.223-1.014-5.537-1.742-11.828-4.5-16.377-8.111a11.665,11.665,0,0,1-4.887-7.773c0-4.757,8.215-10.84,20.069-14.974,1.482-.52,2.99-.988,4.5-1.43A138.23,138.23,0,0,0,36.524,60.5a142.1,142.1,0,0,0-6.447,16.767Zm30.311,25.476a47.581,47.581,0,0,1-14.662,9.176,11.506,11.506,0,0,1-9.177.338c-4.133-2.392-5.849-11.568-3.509-23.916.286-1.456.6-2.912.962-4.341a130.05,130.05,0,0,0,17.651,2.548,137.187,137.187,0,0,0,11.23,13.882C62.052,101.24,61.22,102.019,60.388,102.747Zm6.369-6.317c-2.652-2.86-5.3-6.031-7.877-9.436,2.5.1,5.069.156,7.669.156,2.678,0,5.3-.052,7.9-.182a112.108,112.108,0,0,1-7.695,9.462Zm33.976,7.8a11.553,11.553,0,0,1-4.289,8.137c-4.133,2.392-12.946-.728-22.46-8.891-1.092-.936-2.184-1.95-3.3-2.99a128.6,128.6,0,0,0,10.97-13.934,128.149,128.149,0,0,0,17.729-2.73c.26,1.066.494,2.132.7,3.171a47.389,47.389,0,0,1,.65,17.235Zm4.731-27.945c-.728.234-1.456.468-2.21.676a132.055,132.055,0,0,0-6.629-16.585A131.4,131.4,0,0,0,103,44.023c1.352.39,2.652.806,3.9,1.222,12.114,4.159,20.615,10.346,20.615,15.078,0,5.1-9.073,11.672-22.044,15.961Zm-38.916-3.9A11.906,11.906,0,1,0,54.643,60.478,11.9,11.9,0,0,0,66.549,72.384Z" transform="translate(1571 229.487)"/><g transform="translate(666 290.028)"><path class="c" d="M516.326,380.018V565.013l30.944,50.43,2.355,3.836h122.1l2.467-239.261Z"/><path class="d" d="M516.326,380.018V565.013l30.944,50.43,1.9-235.425Z"/><path class="c" d="M221.566,375.084v185l-30.944,50.43-2.355,3.835H66.17L63.7,375.084Z"/><path class="d" d="M221.566,375.084v185l-30.944,50.43-1.9-235.426Z"/><path class="c" d="M711.188,371.385v11.1H47.67V366.451l61.665-32.066H656.923Z"/><path class="d" d="M711.188,371.385v11.1H47.67V366.451Z"/><path class="e" d="M142.635,426.883h-29.6L100.7,418.25h55.5Z"/><path class="e" d="M142.635,462.649h-29.6L100.7,454.016h55.5Z"/><path class="e" d="M142.635,513.215h-29.6L100.7,504.581h55.5Z"/><path class="e" d="M142.635,563.78h-29.6L100.7,555.147h55.5Z"/><path class="e" d="M595.257,431.816h29.6l12.333-8.633h-55.5Z"/><path class="e" d="M595.257,467.582h29.6l12.333-8.633h-55.5Z"/><path class="e" d="M595.257,518.148h29.6l12.333-8.633h-55.5Z"/><path class="e" d="M595.257,568.713h29.6l12.333-8.633h-55.5Z"/><path class="e" d="M859.82,235.615H610.634a9.423,9.423,0,0,0-9.424,9.425V412.9a9.423,9.423,0,0,0,9.425,9.424h94.592l-3.544,22.626s-20.253,10.759-6.013,11.076,81.328,0,81.328,0,12.974,0-7.595-11.392l-3.334-22.31h93.75a9.423,9.423,0,0,0,9.424-9.425V245.039a9.423,9.423,0,0,0-9.424-9.424Z" transform="translate(-244.406 -115.159)"/><rect class="f" width="249.996" height="139.871" transform="translate(365.823 130.424)"/><circle class="f" cx="1.582" cy="1.582" r="1.582" transform="translate(489.239 124.412)"/><circle class="f" cx="6.013" cy="6.013" r="6.013" transform="translate(484.808 288.333)"/><path class="e" d="M481.452,357.952v3.165H311.2v-2.532l.234-.633,4.2-11.392H477.971Z"/><path class="e" d="M791.376,470.013c-.31,1.326-1.481,2.725-4.127,4.047-9.493,4.747-28.8-1.266-28.8-1.266s-14.873-2.532-14.873-9.177a11.861,11.861,0,0,1,1.3-.775c3.991-2.112,17.225-7.322,40.691.221a9.786,9.786,0,0,1,4.46,2.923,4.667,4.667,0,0,1,1.342,4.027Z" transform="translate(-244.406 -115.159)"/><path class="d" d="M791.376,470.013c-11.62,4.452-21.977,4.785-32.607-2.6a23.343,23.343,0,0,0-13.886-4.573c3.991-2.112,17.225-7.322,40.69.221a9.786,9.786,0,0,1,4.46,2.923,4.667,4.667,0,0,1,1.342,4.027Z" transform="translate(-244.406 -115.159)"/><ellipse class="f" cx="4.114" cy="1.266" rx="4.114" ry="1.266" transform="translate(528.286 349.724)"/><path class="d" d="M481.452,357.952v3.165H311.2v-2.532l.234-.633Z"/><path class="g" d="M339.068,115.159a8.554,8.554,0,0,0-4.961,1.108c-1.476,1.011-2.406,2.782-3.356,4.429A52.986,52.986,0,0,1,316.317,137c-4.289,3.142-9.742,7.06-9.008,12.853a17.371,17.371,0,0,0,2.091,5.426c3.957,7.987,14.754,14.159,13.692,23.273,3.931-6.581-1.327-9.835,2.6-16.416,1.872-3.134,5.124-6.672,7.951-4.7.946.659,1.568,1.841,2.553,2.419,2.351,1.38,4.853-1.258,6.934-3.126,7.177-6.443,17.383-4.755,26.314-2.747,4.216.948,8.847,2.191,11.34,6.221,3.277,5.3-3.113,11.02-4.728,17.01a3.264,3.264,0,0,0,3.5,4.062c2.68-.264,5.854-.481,6.013-1.657,3.372.12,7.5-.262,8.947-3.773a14.761,14.761,0,0,0,.693-4.293c.53-5.9,3.033-11.277,4.691-16.89s2.379-12.191-.419-17.167a19.865,19.865,0,0,0-3.666-4.456C379.94,117.67,359.063,115.136,339.068,115.159Z" transform="translate(-244.406 -115.159)"/><path class="h" d="M326.544,190.064s3.453,28.778-9.209,31.081,11.511,41.441,11.511,41.441l57.557,6.907L372.59,223.447s-9.209-3.453-3.453-26.476S326.544,190.064,326.544,190.064Z" transform="translate(-244.406 -115.159)"/><path class="h" d="M47.028,569.318l4.6,63.313H75.806L68.9,569.318Z"/><path class="h" d="M224.3,449.6l3.453,52.952,26.477-11.511L243.872,447.3Z"/><path class="g" d="M274.167,442.738s1.151,66.766,8.058,88.637,5.756,23.023,4.6,26.476-2.3,1.151-2.3,6.907-2.3,96.7,0,104.753-6.907,21.872,0,23.023,39.139,0,40.29-6.907-9.209-9.209-4.6-13.814,11.511-99,11.511-99L347.84,507.2l29.93-34.534h63.313l19.569,75.975s-8.058,21.872-2.3,21.872,40.29,6.907,40.29-18.418-11.512-100.148-13.814-102.45,1.151-10.36-2.3-13.814S438.78,408.2,423.815,403.6s-35.958-10.085-35.958-10.085Z" transform="translate(-244.406 -115.159)"/><path class="g" d="M498.639,596.991s-17.267-5.756-25.325,11.511-4.6,21.872-4.6,21.872,26.476,9.209,31.081,4.6c2-2,8.365-2.7,14.913-2.846,9.973-.224,12.626-14.333,3.207-17.619q-.421-.147-.853-.255C507.848,611.955,498.639,596.991,498.639,596.991Z" transform="translate(-244.406 -115.159)"/><circle class="h" cx="34.534" cy="34.534" r="34.534" transform="translate(73.504 24.831)"/><path class="i" d="M307.55,235.534s56.406,11.511,70.219-6.907,19.569,51.8,19.569,51.8l6.907,73.673-10.36,40.29s-54.1,43.743-71.37,47.2-43.743,5.756-43.743,5.756,8.058-127.776,8.058-130.078S307.55,235.534,307.55,235.534Z" transform="translate(-244.406 -115.159)"/><path class="g" d="M324.7,213.945s-12.55-7.189-16-.282-35.685,24.173-39.138,24.173,6.907,95.544,2.3,107.056-26.476,95.544-13.814,102.451,3.453-6.907,16.116,10.36,74.824,17.267,78.277,10.36-27.627-58.708-21.872-107.056,14.965-115.114,6.907-124.323S324.7,213.945,324.7,213.945Z" transform="translate(-244.406 -115.159)"/><path class="g" d="M366.258,221.72l1.6-5.518s47.9,15.878,50.2,26.238,1.151,82.882-6.907,88.638-19.569,14.965-11.511,28.778,17.267,28.778,24.174,29.93,19.569,9.209,16.116,17.267-44.894-6.907-44.894-6.907-27.627-20.72-26.476-52.952S366.258,221.72,366.258,221.72Z" transform="translate(-244.406 -115.159)"/><path class="h" d="M406.548,357.554l-27.627,51.8S338.631,450.8,361.654,455.4s35.685-37.987,35.685-37.987l29.93-42.592Z" transform="translate(-244.406 -115.159)"/><path class="g" d="M340.75,124.195a7.838,7.838,0,0,0-4.039.783,9.413,9.413,0,0,0-2.732,3.131,39.773,39.773,0,0,1-11.75,11.524c-3.491,2.221-7.93,4.99-7.333,9.084a11.36,11.36,0,0,0,1.7,3.835,30.164,30.164,0,0,1,3.665,18.8l9.6-13.954c1.524-2.215,4.171-4.715,6.472-3.324.77.466,1.276,1.3,2.078,1.71,1.914.975,3.95-.889,5.644-2.21,5.842-4.554,14.151-3.361,21.421-1.942,3.432.67,7.2,1.549,9.231,4.4,3.372,4.733-.149,11.572,1.819,17.04a5.023,5.023,0,0,0,2.079-3.317c2.745.085,6.108-.185,7.283-2.666a9.188,9.188,0,0,0,.564-3.034c.432-4.168,2.469-7.971,3.819-11.938s1.937-8.616-.341-12.133a14.68,14.68,0,0,0-2.984-3.149C374.022,125.97,357.027,124.178,340.75,124.195Z" transform="translate(-244.406 -115.159)"/><path class="g" d="M406.548,237.836l10.725,2.847s24.96,63.919,19.2,107.662-9.209,34.534-9.209,34.534-9.209-20.72-29.93-16.116Z" transform="translate(-244.406 -115.159)"/><path class="g" d="M293.029,739.422c-2.776,3.772-2.219,9.165-4.678,13.151-2.131,3.455-6.148,5.267-8.814,8.329a22.329,22.329,0,0,0-2.266,3.26c-2.473,4.143-4.483,9.452-2.048,13.616,1.959,3.35,6.078,4.66,9.855,5.552,4.774,1.128,9.734,2.031,14.564,1.169s9.549-3.819,11.271-8.412a32.5,32.5,0,0,1,1.205-3.4c2.617-5.153,10.828-5.209,13.506-10.33,1.875-3.584.151-7.916-1.571-11.576L318.791,739.6c-1.746-3.709-8.824-1.576-12.513-2.465C301.465,735.978,296.491,734.7,293.029,739.422Z" transform="translate(-244.406 -115.159)"/><path class="h" d="M254.6,380.577,302.946,455.4s29.93,37.987,39.139,20.72-32.232-46.045-32.232-46.045l-31.081-57.557Z" transform="translate(-244.406 -115.159)"/><path class="g" d="M278.772,240.138l-9.209-2.3s-18.418,5.756-23.023,29.93-1.151,120.869,4.6,122.02,28.427-16.837,32.056-13.023-7.882-15.755-4.429-26.116S278.772,240.138,278.772,240.138Z" transform="translate(-244.406 -115.159)"/><rect class="i" width="29.752" height="7.163" transform="translate(437.407 176.363)"/><rect class="i" width="10.468" height="7.163" transform="translate(559.722 176.363)"/><rect class="i" width="10.468" height="7.163" transform="translate(580.659 176.363)"/><rect class="i" width="71.075" height="7.163" transform="translate(477.628 176.363)"/><rect class="i" width="29.752" height="7.163" transform="translate(399.941 222.644)"/><rect class="i" width="10.468" height="7.163" transform="translate(522.256 222.644)"/><rect class="i" width="10.468" height="7.163" transform="translate(543.193 222.644)"/><rect class="i" width="71.075" height="7.163" transform="translate(440.162 222.644)"/><rect class="i" width="29.752" height="7.163" transform="translate(522.807 192.341)"/><rect class="i" width="29.752" height="7.163" transform="translate(563.028 192.341)"/><rect class="i" width="10.468" height="7.163" transform="translate(399.941 192.341)"/><rect class="i" width="10.468" height="7.163" transform="translate(420.878 192.341)"/><rect class="i" width="71.075" height="7.163" transform="translate(441.815 192.341)"/><rect class="i" width="29.752" height="7.163" transform="translate(461.099 207.768)"/><rect class="i" width="29.752" height="7.163" transform="translate(420.878 207.768)"/><rect class="i" width="10.468" height="7.163" transform="translate(399.941 207.768)"/><rect class="i" width="10.468" height="7.163" transform="translate(582.312 207.768)"/><rect class="i" width="71.075" height="7.163" transform="translate(500.768 207.768)"/></g></svg>